<?xml version="1.0" encoding="UTF-8"?>
<svg id="Layer_2" data-name="Layer 2" xmlns="http://www.w3.org/2000/svg" width="350" height="350" viewBox="0 0 197.95 152.99">
  <defs>
    <style>
      .cls-1 {
        fill: #f57e20;
      }

      .cls-2 {
        fill: #f7ec13;
      }

      .cls-3 {
        fill: #697b34;
      }
    </style>
  </defs>
  <g id="Layer_1-2" data-name="Layer 1">
    <g>
      <g id="_f7f7f5ff" data-name="#f7f7f5ff">
        <g>
          <path class="cls-2" d="m75.58,118.36c-3.46-2.21-6.42-5.07-9.56-7.69-12.31-10.22-22.86-22.62-30.67-36.6-3.73-6.35-6.44-13.24-9.12-20.09-3.57-10.21-6.19-20.77-7.71-31.49-.86-7.46-1.77-14.96-1.47-22.49,2.19,4.04,4.79,7.83,7.48,11.54,5.32,7.28,11.66,13.8,18.4,19.78,6.33,5.64,13.51,10.21,19.95,15.71,2.81,2.28,5.32,4.89,8.01,7.3,1.1,1.01,2.34,1.97,2.97,3.37-8.09,10.77-10.96,24.93-8.78,38.12.86,5.02,2.79,9.79,5.09,14.31,1.49,2.94,3.67,5.44,5.41,8.23Z"/>
          <path class="cls-2" d="m180.29,6.49c-.25,2.88-.41,5.77-.72,8.65-.7,8.83-2.58,17.5-4.68,26.09-4.55,17.07-11.93,33.54-22.67,47.64-8.72,11.79-19.88,21.48-31.44,30.38,2.01-2.67,4.08-5.31,5.76-8.21,4.09-7.42,6.62-15.84,6.25-24.37.09-8.58-2.12-17.15-6.5-24.54-1.02-1.69-2.07-3.37-2.91-5.16,4.47-3.64,8.32-7.99,12.9-11.51,7.2-5.89,15.06-11,21.67-17.6,8.73-8.02,16.19-17.37,22.25-27.54.12,2.05.12,4.11.09,6.17Z"/>
        </g>
      </g>
      <g id="_f3f3f3ff" data-name="#f3f3f3ff">
        <path class="cls-1" d="m197.95,55.97l-.17.36c-4.84,9.59-10.3,18.91-16.85,27.44-4.21,5.36-8.6,10.63-13.79,15.07-5.83,5.4-12.62,9.6-19.62,13.3-2.61,1.56-5.31,2.97-7.96,4.47-7.84,4.41-15.41,9.37-22.3,15.16-7.22,5.94-13.43,13.12-18.1,21.22-3.71-7.33-9.2-13.61-15.22-19.14-2.44-1.94-4.83-3.94-7.34-5.79-5.58-4.19-11.59-7.76-17.58-11.31-4.32-2.16-8.61-4.42-12.78-6.85-7.42-4.06-14.21-9.24-20.08-15.33C15.33,83.65,7.49,70.27.23,56.82l-.23-.39c1.46.83,2.46,2.2,3.65,3.35,1.25,1.28,2.68,2.38,4.16,3.39,4.79,3.39,10.1,5.95,15.57,8.02.88.33,1.77.65,2.68.93.45.14.92.27,1.38.4.19.05.58.16.77.21.47.13.94.26,1.4.39,1.17.32,2.36.58,3.53.88.64.39,1.22.91,1.56,1.59,5.45,10.2,12.88,19.17,20.83,27.49,5.24,5.35,11.14,9.97,16.84,14.79,2.24,1.49,4.42,3.08,6.52,4.79,2.64,1.85,5.15,3.88,7.56,6.03,1.33,1.1,2.63,2.24,3.86,3.46,1.97,1.88,3.93,3.81,5.61,5.96,1.03,1.32,2.03,2.66,3.11,3.95.94-1.1,1.83-2.24,2.68-3.41,1.28-1.85,2.83-3.48,4.42-5.06,2.09-2.27,4.38-4.33,6.76-6.28,1.94-1.76,4.01-3.36,6.09-4.96,1.4-1.13,2.89-2.16,4.32-3.25,3.02-2.62,6.25-4.98,9.32-7.53,9.94-8.71,19.05-18.48,26.17-29.65,1.62-2.47,2.88-5.19,4.77-7.48,1.01-.37,2.05-.62,3.1-.82.17-.03.51-.09.68-.12.53-.15,1.06-.3,1.58-.46.78-.24,1.56-.49,2.34-.74.72-.23,1.44-.47,2.16-.72.74-.25,1.48-.53,2.21-.81,1.98-.74,3.9-1.61,5.8-2.54,3.57-1.56,6.81-3.75,9.96-6.03,2.45-1.79,4.29-4.25,6.56-6.23Z"/>
      </g>
      <g id="_f6f6f6ff" data-name="#f6f6f6ff">
        <path class="cls-3" d="m122.02,87.58c-.16,7.92-3.06,15.68-7.71,22.06-4.25,5.91-9.84,10.72-15.73,14.92-3.36-2.3-6.46-4.94-9.43-7.72-6.36-5.98-11.32-13.65-13.28-22.23-1.58-7.76-1.03-16,1.97-23.36,2.16,1.76,4.02,3.86,6.17,5.62,1.75,1.82,3.69,3.43,5.44,5.25-1.56,2.84-2.94,6.03-2.35,9.34,1.21,6.76,5.92,12.38,11.47,16.16,5.16-3.67,9.63-8.83,11.17-15.09.94-3.6-.16-7.35-2.14-10.39,3.57-3.88,7.71-7.19,11.37-10.99.19.18.57.53.76.7,1.63,5.06,2.55,10.41,2.29,15.73Z"/>
      </g>
    </g>
  </g>
</svg>